<?xml version="1.0" standalone="no"?>
<!DOCTYPE svg PUBLIC "-//W3C//DTD SVG 20010904//EN"
 "http://www.w3.org/TR/2001/REC-SVG-20010904/DTD/svg10.dtd">
<svg version="1.0" xmlns="http://www.w3.org/2000/svg"
 width="860.000000pt" height="803.000000pt" viewBox="0 0 860.000000 803.000000"
 preserveAspectRatio="xMidYMid meet">

<g transform="translate(0.000000,803.000000) scale(0.100000,-0.100000)"
fill="#000000" stroke="none">
<path d="M3845 5463 c-558 -6 -1424 -47 -1788 -83 -55 -5 -151 -12 -215 -15
-65 -2 -142 -7 -172 -10 -30 -3 -185 -16 -345 -30 -159 -15 -310 -29 -335 -33
l-45 -7 -28 -80 c-25 -70 -85 -283 -101 -356 l-5 -25 -203 -19 c-112 -10 -213
-22 -226 -26 -41 -16 -72 -58 -72 -101 0 -21 4 -46 10 -56 5 -9 101 -246 211
-527 197 -496 202 -512 206 -595 3 -47 1 -103 -5 -125 -5 -22 -84 -274 -176
-560 -91 -287 -166 -536 -166 -554 0 -23 9 -41 31 -63 l30 -31 92 6 c175 11
711 57 715 61 2 3 -14 35 -36 73 -41 71 -92 169 -92 177 0 7 546 -3 750 -14
91 -4 167 -6 169 -4 2 2 -10 24 -27 48 -18 24 -32 48 -32 54 0 5 69 14 153 20
l152 11 60 -64 60 -64 1845 -4 c1015 -2 1851 -2 1857 0 7 3 35 34 63 70 l52
65 111 -8 c62 -4 134 -10 160 -13 l48 -6 -35 -50 c-20 -27 -36 -54 -36 -59 0
-5 126 -6 308 -1 614 14 652 15 652 2 0 -7 -12 -32 -26 -57 -52 -90 -95 -172
-92 -175 2 -3 355 -33 724 -62 85 -7 116 0 144 29 33 36 25 86 -54 332 -41
127 -102 319 -136 426 -34 107 -77 243 -96 301 -40 122 -51 210 -35 292 6 33
103 291 217 575 113 285 208 529 211 544 6 30 -24 80 -60 100 -12 6 -121 21
-242 33 l-220 20 -12 40 c-6 22 -30 108 -53 190 -52 187 -71 233 -102 240 -44
10 -733 66 -933 75 -110 5 -225 14 -255 20 -175 31 -1651 84 -2195 78 -99 -2
-270 -4 -380 -5z m27 -630 c129 -64 202 -150 245 -288 16 -54 18 -100 18 -465
0 -364 -2 -411 -18 -465 -64 -210 -240 -335 -472 -335 -199 0 -357 92 -438
255 -51 102 -52 113 -52 540 0 360 2 407 19 468 33 121 119 228 228 283 93 48
124 54 259 51 l126 -2 85 -42z m1171 26 c209 -70 326 -246 327 -491 l0 -78
-160 0 -160 0 0 89 c0 75 -3 93 -23 122 -28 42 -98 79 -152 79 -56 0 -125 -37
-150 -80 -19 -33 -20 -52 -20 -420 0 -383 0 -385 23 -421 60 -97 226 -100 296
-6 17 23 22 46 24 128 l4 99 -66 0 -66 0 0 135 0 135 225 0 225 0 0 -207 c0
-115 -5 -237 -11 -273 -28 -180 -155 -320 -338 -374 -81 -24 -226 -21 -304 5
-155 52 -261 158 -307 306 -19 61 -20 93 -20 472 0 346 2 416 16 462 41 138
121 233 245 292 89 42 96 44 227 46 80 1 116 -4 165 -20z m-2633 -659 l5 -635
278 -3 277 -2 0 -150 0 -150 -435 0 -435 0 0 790 0 791 153 -3 152 -3 5 -635z
m3841 614 c177 -52 306 -190 339 -363 14 -73 13 -770 -1 -847 -30 -167 -153
-303 -318 -354 -87 -27 -235 -27 -324 0 -134 41 -245 145 -299 278 -22 56 -23
65 -26 472 -3 360 -1 423 14 482 37 155 172 288 334 334 66 18 216 17 281 -2z"/>
<path d="M3560 4558 c-88 -45 -85 -29 -88 -456 -3 -432 -2 -442 71 -490 33
-22 52 -27 101 -27 79 0 123 25 154 85 22 45 23 47 20 427 -3 367 -4 383 -24
410 -27 38 -99 73 -149 73 -23 0 -60 -10 -85 -22z"/>
<path d="M6046 4516 c-60 -22 -94 -61 -106 -122 -7 -34 -10 -173 -8 -396 3
-325 4 -345 24 -383 54 -103 229 -113 299 -17 19 26 20 45 23 423 l3 395 -23
34 c-44 66 -136 94 -212 66z"/>
<path d="M6095 2049 c-38 -34 -101 -84 -140 -113 -38 -28 -83 -61 -100 -74
-28 -21 -76 -53 -183 -123 -73 -47 -301 -155 -427 -202 -151 -56 -411 -123
-580 -149 -195 -29 -515 -35 -701 -13 l-146 18 -91 -91 c-50 -50 -89 -93 -86
-96 12 -12 225 -48 347 -57 461 -37 889 42 1297 241 300 147 557 339 762 572
83 94 127 148 121 148 -2 -1 -34 -28 -73 -61z"/>
</g>
</svg>
